<svg xmlns="http://www.w3.org/2000/svg" viewBox="0 0 1550 400"><title>DCC</title><path d="M150,100v25A75,75,0,0,1,0,125V75A75,75,0,0,1,72,.06V100Z"/><path d="M750,75v50a75,75,0,0,1-150,0V100h75V0a75,75,0,0,1,75,75Z"/><path d="M425,400H325A150,150,0,0,1,175,250h0A150,150,0,0,1,325,100H425A150,150,0,0,1,575,250h0A150,150,0,0,1,425,400ZM325,150a50,50,0,1,0,50,50A50,50,0,0,0,325,150Zm125,0a25,25,0,1,0,25,25A25,25,0,0,0,450,150Z"/><path d="M987.5,175a37.54,37.54,0,0,1,37.5,37.5v75A37.54,37.54,0,0,1,987.5,325H950V175h37.5m0-75H875V400H987.5A112.5,112.5,0,0,0,1100,287.5v-75A112.5,112.5,0,0,0,987.5,100Z"/><path d="M1475,325a37.54,37.54,0,0,1-37.5-37.5v-75A37.54,37.54,0,0,1,1475,175h60l15-75h-75a112.5,112.5,0,0,0-112.5,112.5v75A112.5,112.5,0,0,0,1475,400h75l-15-75Z"/><path d="M1250,325a37.54,37.54,0,0,1-37.5-37.5v-75A37.54,37.54,0,0,1,1250,175h60l15-75h-75a112.5,112.5,0,0,0-112.5,112.5v75A112.5,112.5,0,0,0,1250,400h75l-15-75Z"/><path d="M252,348.59V294.1A213.72,213.72,0,0,0,134.7,400h58A163.65,163.65,0,0,1,252,348.59Z"/><path d="M498,286.35v51.73A163.16,163.16,0,0,1,583.34,400h58A213.35,213.35,0,0,0,498,286.35Z"/><path d="M152.56,326.56A235.86,235.86,0,0,1,272,261.93V211A288.35,288.35,0,0,0,48.82,400h53.65A237.31,237.31,0,0,1,152.56,326.56Z"/><path d="M658.79,291.21A285.36,285.36,0,0,0,478,207.86V258A238.21,238.21,0,0,1,673.53,400h53.65A286.42,286.42,0,0,0,658.79,291.21Z"/></svg>
