<svg xmlns="http://www.w3.org/2000/svg" viewBox="0 0 500 500"><title>mine</title><path d="M448.45,225A200.1,200.1,0,0,0,275,51.55V0H225V51.55A200.1,200.1,0,0,0,51.55,225H0v50H51.55A200.1,200.1,0,0,0,225,448.45V500h50V448.45A200.1,200.1,0,0,0,448.45,275H500V225ZM225,175a50,50,0,0,1-50,50h0a50,50,0,0,1-50-50h0a50,50,0,0,1,50-50h0a50,50,0,0,1,50,50Z" style="fill:#000"/><rect x="50.36" y="50.36" width="50" height="50" transform="translate(-31.21 75.36) rotate(-45)" style="fill:#000"/><rect x="409.64" y="50.36" width="50" height="50" transform="translate(74.02 329.41) rotate(-45)" style="fill:#000"/><rect x="50.36" y="399.64" width="50" height="50" transform="translate(-278.2 177.66) rotate(-45)" style="fill:#000"/><rect x="409.64" y="399.64" width="50" height="50" transform="translate(-172.96 431.72) rotate(-45)" style="fill:#000"/></svg>
